<?xml version="1.0" standalone="no"?>
<!DOCTYPE svg PUBLIC "-//W3C//DTD SVG 20010904//EN"
 "http://www.w3.org/TR/2001/REC-SVG-20010904/DTD/svg10.dtd">
<svg version="1.0" xmlns="http://www.w3.org/2000/svg"
 width="192.000000pt" height="192.000000pt" viewBox="0 0 192.000000 192.000000"
 preserveAspectRatio="xMidYMid meet">
<metadata>
Created by potrace 1.14, written by Peter Selinger 2001-2017
</metadata>
<g transform="translate(0.000000,192.000000) scale(0.100000,-0.100000)"
fill="#000000" stroke="none">
<path d="M903 1883 c-37 -7 -110 -80 -129 -128 -20 -53 -16 -122 11 -179 19
-39 87 -96 128 -106 20 -6 22 -12 22 -88 l1 -81 -141 0 c-370 0 -349 1 -385
-23 -65 -44 -74 -66 -75 -185 l-2 -108 -52 -15 c-28 -8 -65 -28 -81 -44 -59
-55 -62 -70 -62 -290 0 -113 4 -212 10 -227 25 -63 95 -117 157 -122 28 -2 28
-2 30 -83 2 -92 17 -127 73 -163 l36 -24 511 0 c280 0 526 3 547 7 42 8 107
73 109 109 1 12 3 45 4 72 4 85 5 89 11 82 12 -12 99 23 130 54 49 47 56 82
56 253 -1 260 0 248 -28 293 -30 45 -64 68 -126 87 l-42 12 -2 94 c-2 131 -1
125 -30 160 -50 58 -61 60 -327 61 l-244 1 0 79 -1 78 53 25 c207 94 139 410
-87 405 -29 -1 -63 -4 -75 -6z"/>
</g>
</svg>
